<svg width="14" height="14" xmlns="http://www.w3.org/2000/svg" xmlns:xlink="http://www.w3.org/1999/xlink" overflow="hidden"><defs><clipPath id="clip0"><path d="M1096 66 1110 66 1110 80 1096 80Z" fill-rule="evenodd" clip-rule="evenodd"/></clipPath></defs><g clip-path="url(#clip0)" transform="translate(-1096 -66)"><path d="M0 0 10.7518 10.7519" stroke="#7C7C7C" stroke-width="1.33333" stroke-linecap="square" stroke-miterlimit="8" fill="none" fill-rule="evenodd" transform="matrix(1 0 0 -1 1098.5 79.252)"/><path d="M0 0 4.14667 0.000104987" stroke="#7C7C7C" stroke-width="1.33333" stroke-linecap="square" stroke-miterlimit="8" fill="none" fill-rule="evenodd" transform="matrix(1 0 0 -1 1103.5 73.5001)"/><path d="M0 0 4.14667 0.000104987" stroke="#7C7C7C" stroke-width="1.33333" stroke-linecap="square" stroke-miterlimit="8" fill="none" fill-rule="evenodd" transform="matrix(-4.37114e-08 1 1 4.37114e-08 1103.5 69.5)"/><path d="M0 0 4.14667 0.000104987" stroke="#7C7C7C" stroke-width="1.33333" stroke-linecap="square" stroke-miterlimit="8" fill="none" fill-rule="evenodd" transform="matrix(-1 -8.74228e-08 -8.74228e-08 1 1103.65 73.5001)"/><path d="M0 0 4.14667 0.000104987" stroke="#7C7C7C" stroke-width="1.33333" stroke-linecap="square" stroke-miterlimit="8" fill="none" fill-rule="evenodd" transform="matrix(-4.37114e-08 -1 -1 4.37114e-08 1103.5 77.6467)"/></g></svg>