<!-- Exported by Character Map UWP -->
<svg height="100%" viewBox="32 -234 261 288" width="100%" xmlns="http://www.w3.org/2000/svg" xmlns:xlink="http://www.w3.org/1999/xlink">
  <path d="M265.625,-233.625L265.625,-9L292.5,-9C292.5,-6.91667 292.521,-4.85417 292.563,-2.8125C292.604,-0.770833 292.625,1.29167 292.625,3.375C292.625,7.375 292.396,11.3125 291.938,15.1875C291.479,19.0625 290.5,22.8333 289,26.5C287.25,30.6667 284.958,34.4375 282.125,37.8125C279.292,41.1875 276.063,44.0625 272.438,46.4375C268.813,48.8125 264.896,50.6458 260.688,51.9375C256.479,53.2292 252.125,53.875 247.625,53.875L76.875,53.875C70.625,53.875 64.7917,52.7083 59.375,50.375C53.9583,48.0417 49.2083,44.8333 45.125,40.75C41.0417,36.6667 37.8333,31.9167 35.5,26.5C33.1667,21.0833 32,15.25 32,9L32,-233.625Z" fill="#000000" fill-opacity="1">
  </path>
  <path d="M50,9L50,-215.625L247.625,-215.625L247.625,18.375L99.625,31.5C98.0417,31.6667 96.4792,31.9792 94.9375,32.4375C93.3958,32.8958 91.8542,33.375 90.3125,33.875C88.7708,34.375 87.2083,34.8333 85.625,35.25C84.0417,35.6667 82.4583,35.875 80.875,35.875L76.875,35.875C73.125,35.875 69.625,35.1667 66.375,33.75C63.125,32.3333 60.2917,30.4167 57.875,28C55.4583,25.5833 53.5417,22.75 52.125,19.5C50.7083,16.25 50,12.75 50,9Z" fill="#FFFFFF" fill-opacity="1">
  </path>
  <path d="M103.875,9L274.625,9C274.625,12.75 273.917,16.25 272.5,19.5C271.083,22.75 269.146,25.5833 266.688,28C264.229,30.4167 261.375,32.3333 258.125,33.75C254.875,35.1667 251.375,35.875 247.625,35.875L78,35.875C81.5833,35.7083 84.9583,34.8958 88.125,33.4375C91.2917,31.9792 94.0417,30.0417 96.375,27.625C98.7083,25.2083 100.542,22.4167 101.875,19.25C103.208,16.0833 103.875,12.6667 103.875,9Z" fill="#E5E5E5" fill-opacity="1">
  </path>
  <path d="M67.875,-170.75L229.625,-170.75L229.625,-161.75L67.875,-161.75ZM67.875,-80.875L67.875,-89.875L229.625,-89.875L229.625,-80.875ZM67.875,-27L67.875,-36L220.625,-36L220.625,-27ZM220.625,-116.875L220.625,-107.875L67.875,-107.875L67.875,-116.875ZM211.625,-143.75L211.625,-134.75L67.875,-134.75L67.875,-143.75ZM211.625,-62.875L211.625,-53.875L67.875,-53.875L67.875,-62.875ZM148.75,-197.625L148.75,-188.75L67.875,-188.75L67.875,-197.625ZM67.875,0L67.875,-9L103.875,-9L103.875,0Z" fill="#A6A6A6" fill-opacity="1">
  </path>
</svg>