<!-- Exported by Character Map UWP -->
<svg height="100%" viewBox="32 -189 275 207" width="100%" xmlns="http://www.w3.org/2000/svg" xmlns:xlink="http://www.w3.org/1999/xlink">
  <path d="M32,18L32,-170.75L42.5,-170.75C43.5,-173.333 44.8542,-175.729 46.5625,-177.938C48.2708,-180.146 50.2292,-182.042 52.4375,-183.625C54.6458,-185.208 57.0625,-186.458 59.6875,-187.375C62.3125,-188.292 65.0417,-188.75 67.875,-188.75L103.875,-188.75C106.708,-188.75 109.458,-188.313 112.125,-187.438C114.792,-186.563 117.208,-185.333 119.375,-183.75C121.542,-182.167 123.479,-180.271 125.188,-178.063C126.896,-175.854 128.25,-173.417 129.25,-170.75L265.625,-170.75L265.625,-161.75L306.625,-161.75L261.625,18Z" fill="#000000" fill-opacity="1">
  </path>
  <path d="M103.875,-125.75L67.875,-125.75C65.4583,-125.75 63.375,-126.646 61.625,-128.438C59.875,-130.229 59,-132.333 59,-134.75L59,-161.75C59,-164.167 59.875,-166.271 61.625,-168.063C63.375,-169.854 65.4583,-170.75 67.875,-170.75L103.875,-170.75C106.292,-170.75 108.396,-169.854 110.188,-168.063C111.979,-166.271 112.875,-164.167 112.875,-161.75L112.875,-134.75C112.875,-132.333 111.979,-130.229 110.188,-128.438C108.396,-126.646 106.292,-125.75 103.875,-125.75Z" fill="#3A96DD" fill-opacity="1">
  </path>
  <path d="M50,0L50,-152.75L247.625,-152.75L247.625,-114.625Z" fill="#EBA300" fill-opacity="1">
  </path>
  <path d="M247.625,0L50,0L85.875,-143.75L283.5,-143.75Z" fill="#FFD679" fill-opacity="1">
  </path>
</svg>