<svg width="15" height="14" xmlns="http://www.w3.org/2000/svg" xmlns:xlink="http://www.w3.org/1999/xlink" overflow="hidden"><defs><clipPath id="clip0"><path d="M1074 66 1089 66 1089 80 1074 80Z" fill-rule="evenodd" clip-rule="evenodd"/></clipPath></defs><g clip-path="url(#clip0)" transform="translate(-1074 -66)"><path d="M1076.5 79.2519 1087.25 68.5001" stroke="#7C7C7C" stroke-width="1.33333" stroke-miterlimit="8" fill="none" fill-rule="evenodd"/><path d="M0 0 4.79989 0.000104987" stroke="#7C7C7C" stroke-width="1.33333" stroke-linecap="square" stroke-miterlimit="8" fill="none" fill-rule="evenodd" transform="matrix(-1 -8.74228e-08 -8.74228e-08 1 1087.3 68.5001)"/><path d="M0 0 4.79989 0.000104987" stroke="#7C7C7C" stroke-width="1.33333" stroke-linecap="square" stroke-miterlimit="8" fill="none" fill-rule="evenodd" transform="matrix(-4.37114e-08 -1 -1 4.37114e-08 1087.5 73.2999)"/><path d="M0 0 4.79989 0.000104987" stroke="#7C7C7C" stroke-width="1.33333" stroke-linecap="square" stroke-miterlimit="8" fill="none" fill-rule="evenodd" transform="matrix(1 0 0 -1 1076.5 79.5001)"/><path d="M0 0 4.79989 0.000104987" stroke="#7C7C7C" stroke-width="1.33333" stroke-linecap="square" stroke-miterlimit="8" fill="none" fill-rule="evenodd" transform="matrix(-4.37114e-08 1 1 4.37114e-08 1076.5 74.5)"/></g></svg>