<svg width="201" height="202" xmlns="http://www.w3.org/2000/svg" xmlns:xlink="http://www.w3.org/1999/xlink" overflow="hidden"><defs><clipPath id="clip0"><rect x="425" y="187" width="201" height="202"/></clipPath></defs><g clip-path="url(#clip0)" transform="translate(-425 -187)"><path d="M526 388C471 388 426 343 426 288 426 233 471 188 526 188 581 188 626 233 626 288 626 343 581 388 526 388ZM576.625 276.75 519.75 276.75C517.25 276.75 514.75 279.25 514.75 281.75L514.75 294.25C514.75 296.75 517.25 299.25 519.75 299.25L554.125 299.25C556.625 299.25 559.125 301.75 559.125 304.25L559.125 306.75C559.125 314.875 552.25 321.75 544.125 321.75L497.25 321.75C494.75 321.75 492.25 319.25 492.25 316.75L492.25 269.25C492.25 261.125 499.125 254.25 507.25 254.25L576.625 254.25C579.125 254.25 581.625 251.75 581.625 249.25L581.625 236.75C581.625 234.25 579.125 231.75 576.625 231.75L507.25 231.75C486.625 231.75 470.375 248.625 470.375 268.625L470.375 338C470.375 340.5 472.875 343 475.375 343L548.5 343C566.625 343 581.625 328 581.625 309.875L581.625 281.75C581.625 279.25 579.125 276.75 576.625 276.75Z" fill="#D81E06" fill-rule="evenodd" fill-opacity="0.34902"/></g></svg>