<svg width="202" height="197" xmlns="http://www.w3.org/2000/svg" xmlns:xlink="http://www.w3.org/1999/xlink" overflow="hidden"><defs><clipPath id="clip0"><rect x="697" y="187" width="202" height="197"/></clipPath></defs><g clip-path="url(#clip0)" transform="translate(-697 -187)"><path d="M897.996 287.924C898.187 309.065 891.466 329.69 878.854 346.665 866.707 363.622 849.47 376.272 829.643 382.78 827.877 383.272 825.983 382.93 824.5 381.852 823.429 380.834 822.855 379.401 822.929 377.926L822.929 350.519C823.506 343.659 821.023 336.893 816.144 332.033 820.622 331.594 825.061 330.831 829.429 329.749 833.715 328.6 837.824 326.871 841.642 324.61 845.643 322.43 849.203 319.526 852.142 316.046 855.369 311.971 857.793 307.32 859.284 302.342 861.179 295.975 862.094 289.356 861.998 282.714 862.221 272.775 858.498 263.153 851.642 255.949 854.864 247.32 854.504 237.761 850.642 229.398 847.079 228.749 843.402 229.249 840.142 230.826 835.963 232.327 831.944 234.24 828.143 236.536L823.215 239.605C806.862 235.036 789.57 235.036 773.218 239.605 771.789 238.605 770.003 237.535 767.718 236.107 764.16 234.035 760.432 232.268 756.576 230.826 753.117 229.071 749.195 228.447 745.362 229.041 741.511 237.487 741.177 247.115 744.433 255.806 737.673 263.122 733.99 272.758 734.148 282.714 734.047 289.31 734.962 295.882 736.862 302.199 738.412 307.154 740.831 311.794 744.005 315.903 746.878 319.486 750.451 322.448 754.504 324.61 758.372 326.77 762.469 328.494 766.718 329.749 771.108 330.836 775.572 331.599 780.074 332.033 776.336 335.551 774.044 340.335 773.646 345.451 771.767 346.345 769.771 346.97 767.718 347.307 765.363 347.75 762.971 347.965 760.575 347.949 757.294 347.97 754.092 346.945 751.433 345.023 748.473 342.879 746.032 340.099 744.291 336.887 742.714 334.196 740.569 331.882 738.005 330.106 736.094 328.64 733.909 327.572 731.577 326.966L729.006 326.966C727.718 326.891 726.429 327.086 725.22 327.537 724.506 327.965 724.292 328.464 724.578 329.036 724.916 329.673 725.323 330.271 725.792 330.82 726.309 331.421 726.883 331.97 727.506 332.461L728.434 333.032C730.676 334.237 732.627 335.918 734.148 337.957 735.742 339.99 737.108 342.192 738.22 344.524L739.505 347.521C740.519 350.741 742.517 353.562 745.219 355.586 747.789 357.448 750.741 358.716 753.862 359.298 756.821 359.917 759.837 360.228 762.861 360.226 765.252 360.269 767.642 360.102 770.003 359.726L773.003 359.226 773.003 377.926C773.031 379.422 772.405 380.855 771.289 381.852 769.777 382.923 767.865 383.263 766.075 382.78 746.31 376.189 729.168 363.46 717.149 346.451 704.473 329.591 697.741 309.011 698.008 287.924 697.903 270.367 702.542 253.106 711.435 237.963 720.169 222.759 732.79 210.148 748.005 201.42 763.159 192.533 780.431 187.897 798.002 188.002 815.572 187.897 832.845 192.533 847.999 201.42 863.214 210.148 875.834 222.759 884.568 237.963 893.468 253.103 898.107 270.366 897.996 287.924Z" fill="#888888" fill-rule="evenodd" fill-opacity="0.309804"/></g></svg>