<svg width="1535" height="201" xmlns="http://www.w3.org/2000/svg" xmlns:xlink="http://www.w3.org/1999/xlink" overflow="hidden"><defs><clipPath id="clip0"><rect x="752" y="3433" width="1535" height="201"/></clipPath></defs><g clip-path="url(#clip0)" transform="translate(-752 -3433)"><path d="M1258.54 3562.92 1258.54 3580.66C1257.37 3585.16 1255.23 3589.22 1252.1 3592.84 1248.97 3596.46 1245.08 3599.31 1240.41 3601.4 1235.74 3603.48 1230.57 3604.52 1224.9 3604.52 1219.07 3604.52 1214.5 3602.96 1211.21 3599.83 1207.92 3596.71 1206.27 3592.36 1206.27 3586.78 1206.27 3581.2 1208.19 3576.62 1212.02 3573.04 1215.86 3569.46 1220.9 3567.08 1227.15 3565.92 1232.49 3564.92 1237.26 3564.23 1241.47 3563.86 1245.68 3563.48 1251.37 3563.17 1258.54 3562.92ZM752 3538.31C752.25 3557.05 756.251 3573.58 764.004 3587.9 771.756 3602.23 782.552 3613.33 796.389 3621.2 810.227 3629.06 826.107 3633 844.03 3633L752 3633ZM2117.07 3519.82C2122.66 3519.82 2127.55 3520.95 2131.76 3523.19 2135.97 3525.44 2139.22 3528.61 2141.52 3532.69 2143.81 3536.77 2144.95 3541.52 2144.95 3546.93L2088.94 3546.93C2088.94 3541.68 2090.12 3537 2092.5 3532.88 2094.87 3528.75 2098.19 3525.55 2102.44 3523.26 2106.69 3520.97 2111.57 3519.82 2117.07 3519.82ZM1085.73 3519.82C1091.32 3519.82 1096.22 3520.95 1100.43 3523.19 1104.64 3525.44 1107.89 3528.61 1110.18 3532.69 1112.47 3536.77 1113.62 3541.52 1113.62 3546.93L1057.6 3546.93C1057.6 3541.68 1058.79 3537 1061.16 3532.88 1063.54 3528.75 1066.85 3525.55 1071.1 3523.26 1075.36 3520.97 1080.23 3519.82 1085.73 3519.82ZM1878.62 3490.96 1878.62 3628.38 1915.13 3628.38 1915.13 3490.96ZM2116.19 3488.09C2103.52 3488.01 2092.4 3490.94 2082.81 3496.9 2073.22 3502.85 2065.82 3511.31 2060.61 3522.26 2055.4 3533.21 2052.84 3545.89 2052.92 3560.3 2053.01 3575.04 2055.84 3587.74 2061.43 3598.4 2067.01 3609.06 2075.12 3617.22 2085.75 3622.88 2096.38 3628.54 2109.15 3631.38 2124.07 3631.38 2133.24 3631.38 2141.81 3630.38 2149.77 3628.38 2157.73 3626.38 2165.88 3622.88 2174.21 3617.88L2168.21 3590.15C2161.54 3593.48 2154.5 3595.98 2147.08 3597.65 2139.66 3599.31 2132.41 3600.15 2125.32 3600.15 2114.65 3600.15 2106.02 3597.65 2099.44 3592.65 2092.85 3587.65 2089.39 3580.57 2089.06 3571.41L2179.97 3571.41C2180.47 3565.83 2180.72 3560.63 2180.72 3555.8 2180.72 3542.22 2178.13 3530.38 2172.96 3520.26 2167.79 3510.14 2160.38 3502.31 2150.71 3496.77 2141.04 3491.23 2129.53 3488.34 2116.19 3488.09ZM1851.86 3488.09C1842.61 3488.17 1834.64 3490.32 1827.98 3494.52 1821.31 3498.73 1815.85 3504.54 1811.6 3511.95L1809.72 3511.95 1809.72 3490.96 1773.33 3490.96 1773.33 3628.38 1809.72 3628.38 1809.72 3571.41C1809.8 3559.84 1810.78 3550.49 1812.66 3543.37 1814.53 3536.25 1818.51 3530.58 1824.6 3526.38 1830.68 3522.17 1839.77 3520.07 1851.86 3520.07ZM1407.71 3488.09C1398.46 3488.17 1390.5 3490.32 1383.83 3494.52 1377.16 3498.73 1371.7 3504.54 1367.45 3511.95L1365.57 3511.95 1365.57 3490.96 1329.19 3490.96 1329.19 3628.38 1365.57 3628.38 1365.57 3571.41C1365.66 3559.84 1366.64 3550.49 1368.51 3543.37 1370.39 3536.25 1374.37 3530.58 1380.45 3526.38 1386.54 3522.17 1395.63 3520.07 1407.71 3520.07ZM1230.28 3488.09C1224.03 3488.09 1216.46 3488.92 1207.58 3490.59 1198.71 3492.25 1190.52 3494.5 1183.02 3497.33L1188.89 3524.44C1195.56 3522.03 1202.35 3520.15 1209.27 3518.82 1216.19 3517.49 1222.61 3516.82 1228.53 3516.82 1236.28 3516.82 1242.47 3518.57 1247.1 3522.07 1251.73 3525.57 1254.96 3530.98 1256.79 3538.31 1249.2 3538.81 1243.37 3539.25 1239.28 3539.62 1235.2 3540 1230.57 3540.6 1225.4 3541.43 1213.9 3543.26 1203.96 3546.32 1195.58 3550.61 1187.2 3554.9 1180.79 3560.17 1176.33 3566.42 1171.87 3572.66 1169.64 3579.62 1169.64 3587.28 1169.64 3596.36 1171.51 3604.21 1175.26 3610.83 1179.01 3617.45 1184.41 3622.53 1191.46 3626.07 1198.5 3629.61 1206.81 3631.38 1216.4 3631.38 1226.15 3631.38 1234.64 3629.23 1241.85 3624.94 1249.06 3620.65 1254.16 3615.26 1257.16 3608.77L1258.54 3608.77 1258.54 3628.38 1295.05 3628.38 1295.05 3554.05C1294.97 3538.81 1292.63 3526.34 1288.05 3516.64 1283.46 3506.93 1276.42 3499.75 1266.92 3495.09 1257.41 3490.42 1245.2 3488.09 1230.28 3488.09ZM1084.86 3488.09C1072.19 3488.01 1061.06 3490.94 1051.47 3496.9 1041.89 3502.85 1034.49 3511.31 1029.28 3522.26 1024.07 3533.21 1021.5 3545.89 1021.59 3560.3 1021.67 3575.04 1024.51 3587.74 1030.09 3598.4 1035.68 3609.06 1043.78 3617.22 1054.41 3622.88 1065.04 3628.54 1077.81 3631.38 1092.74 3631.38 1101.91 3631.38 1110.47 3630.38 1118.43 3628.38 1126.39 3626.38 1134.54 3622.88 1142.88 3617.88L1136.88 3590.15C1130.21 3593.48 1123.16 3595.98 1115.74 3597.65 1108.32 3599.31 1101.07 3600.15 1093.99 3600.15 1083.32 3600.15 1074.69 3597.65 1068.1 3592.65 1061.52 3587.65 1058.06 3580.57 1057.72 3571.41L1148.63 3571.41C1149.13 3565.83 1149.38 3560.63 1149.38 3555.8 1149.38 3542.22 1146.8 3530.38 1141.63 3520.26 1136.46 3510.14 1129.04 3502.31 1119.37 3496.77 1109.7 3491.23 1098.2 3488.34 1084.86 3488.09ZM1498.24 3448.12 1563.26 3628.38 1601.9 3628.38 1630.16 3552.43 1631.91 3552.43 1657.8 3628.38 1694.81 3628.38 1748.2 3448.12 1709.06 3448.12 1673.3 3580.16 1671.17 3580.16 1634.41 3448.12 1596.27 3448.12 1615.66 3504.83 1585.65 3585.16 1583.52 3585.16 1537.63 3448.12ZM2001.91 3447.87 1965.4 3460.36 1965.4 3490.96 1942.89 3490.96 1942.89 3522.69 1965.4 3522.69 1965.4 3583.41C1965.4 3598.06 1969.13 3609.22 1976.59 3616.89 1984.05 3624.55 1994.86 3628.38 2009.03 3628.38L2009.16 3627.88 2009.16 3628.38 2029.42 3628.38 2029.42 3597.77 2017.79 3597.77C2013.95 3597.77 2010.89 3597.23 2008.6 3596.15 2006.3 3595.07 2004.62 3593.17 2003.53 3590.46 2002.45 3587.76 2001.91 3583.91 2001.91 3578.91L2001.91 3522.69 2030.67 3522.69 2030.67 3490.96 2001.91 3490.96ZM948.064 3437.75 948.064 3583.41C948.064 3595.65 949.293 3604.93 951.753 3611.26 954.212 3617.59 958.484 3622.03 964.569 3624.57 970.655 3627.11 979.616 3628.38 991.453 3628.38L1001.83 3628.38 1001.83 3597.77 1000.46 3597.77C995.871 3597.77 992.516 3597.38 990.39 3596.59 988.264 3595.79 986.764 3594.09 985.889 3591.46 985.013 3588.84 984.576 3584.66 984.576 3578.91L984.576 3437.75ZM752 3433 1878.37 3433 1878.37 3469.98 1915.38 3469.98 1915.38 3433 2287 3433 2287 3488.09C2277.75 3488.17 2269.79 3490.32 2263.12 3494.52 2256.45 3498.73 2250.99 3504.54 2246.74 3511.95L2244.86 3511.95 2244.86 3490.96 2208.47 3490.96 2208.47 3628.38 2244.86 3628.38 2244.86 3571.41C2244.94 3559.84 2245.92 3550.49 2247.8 3543.37 2249.68 3536.25 2253.66 3530.58 2259.74 3526.38 2265.83 3522.17 2274.91 3520.07 2287 3520.07L2287 3633 844.03 3633C860.202 3633 874.519 3629.32 886.982 3621.94 899.444 3614.57 909.635 3603.77 917.554 3589.53L894.296 3569.91C887.628 3579.91 880.042 3587.47 871.539 3592.59 863.036 3597.71 853.867 3600.27 844.03 3600.27 833.526 3600.27 824.211 3597.69 816.083 3592.53 807.956 3587.36 801.6 3580.1 797.015 3570.73 792.43 3561.36 790.054 3550.55 789.887 3538.31 790.054 3526.07 792.451 3515.26 797.077 3505.89 801.704 3496.52 808.06 3489.26 816.146 3484.09 824.232 3478.93 833.526 3476.35 844.03 3476.35 853.867 3476.35 863.036 3478.93 871.539 3484.09 880.042 3489.26 887.628 3496.83 894.296 3506.83L917.554 3487.22C909.551 3472.89 899.319 3462.04 886.856 3454.67 874.394 3447.3 860.119 3443.62 844.03 3443.62 826.107 3443.62 810.227 3447.55 796.389 3455.42 782.552 3463.29 771.756 3474.39 764.004 3488.72 756.251 3503.04 752.25 3519.57 752 3538.31Z" fill="#252829" fill-rule="evenodd"/></g></svg>