<svg width="1535" height="202" xmlns="http://www.w3.org/2000/svg" xmlns:xlink="http://www.w3.org/1999/xlink" overflow="hidden"><defs><clipPath id="clip0"><rect x="790" y="3787" width="1535" height="202"/></clipPath></defs><g clip-path="url(#clip0)" transform="translate(-790 -3787)"><path d="M1296.54 3917.92 1296.54 3935.66C1295.37 3940.16 1293.23 3944.22 1290.1 3947.84 1286.97 3951.46 1283.08 3954.31 1278.41 3956.39 1273.74 3958.48 1268.57 3959.52 1262.9 3959.52 1257.07 3959.52 1252.5 3957.96 1249.21 3954.83 1245.92 3951.71 1244.27 3947.36 1244.27 3941.78 1244.27 3936.2 1246.19 3931.62 1250.02 3928.04 1253.86 3924.46 1258.9 3922.08 1265.15 3920.92 1270.49 3919.92 1275.26 3919.23 1279.47 3918.86 1283.68 3918.48 1289.37 3918.17 1296.54 3917.92ZM790 3893.31C790.25 3912.05 794.251 3928.58 802.004 3942.9 809.756 3957.23 820.552 3968.32 834.39 3976.2 848.227 3984.06 864.107 3988 882.03 3988L790 3988ZM2155.07 3874.82C2160.65 3874.82 2165.55 3875.95 2169.76 3878.19 2173.97 3880.44 2177.22 3883.61 2179.51 3887.69 2181.81 3891.77 2182.95 3896.52 2182.95 3901.93L2126.94 3901.93C2126.94 3896.68 2128.12 3892 2130.5 3887.88 2132.87 3883.75 2136.19 3880.55 2140.44 3878.26 2144.69 3875.97 2149.57 3874.82 2155.07 3874.82ZM1123.73 3874.82C1129.32 3874.82 1134.22 3875.95 1138.43 3878.19 1142.64 3880.44 1145.89 3883.61 1148.18 3887.69 1150.47 3891.77 1151.62 3896.52 1151.62 3901.93L1095.6 3901.93C1095.6 3896.68 1096.79 3892 1099.16 3887.88 1101.54 3883.75 1104.85 3880.55 1109.1 3878.26 1113.36 3875.97 1118.23 3874.82 1123.73 3874.82ZM1916.62 3845.96 1916.62 3983.38 1953.13 3983.38 1953.13 3845.96ZM2154.19 3843.09C2141.52 3843.01 2130.39 3845.94 2120.81 3851.9 2111.22 3857.85 2103.82 3866.31 2098.61 3877.26 2093.4 3888.21 2090.84 3900.89 2090.92 3915.3 2091.01 3930.04 2093.84 3942.74 2099.43 3953.4 2105.01 3964.06 2113.12 3972.22 2123.75 3977.88 2134.38 3983.54 2147.15 3986.38 2162.07 3986.38 2171.24 3986.38 2179.81 3985.38 2187.77 3983.38 2195.73 3981.38 2203.88 3977.88 2212.21 3972.88L2206.21 3945.15C2199.54 3948.48 2192.5 3950.98 2185.08 3952.65 2177.66 3954.31 2170.41 3955.15 2163.32 3955.15 2152.65 3955.15 2144.02 3952.65 2137.44 3947.65 2130.85 3942.65 2127.39 3935.57 2127.06 3926.41L2217.97 3926.41C2218.47 3920.83 2218.72 3915.63 2218.72 3910.8 2218.72 3897.22 2216.13 3885.38 2210.96 3875.26 2205.79 3865.14 2198.38 3857.31 2188.71 3851.77 2179.04 3846.23 2167.53 3843.34 2154.19 3843.09ZM1889.86 3843.09C1880.61 3843.17 1872.64 3845.32 1865.98 3849.52 1859.31 3853.73 1853.85 3859.54 1849.59 3866.95L1847.72 3866.95 1847.72 3845.96 1811.33 3845.96 1811.33 3983.38 1847.72 3983.38 1847.72 3926.41C1847.8 3914.84 1848.78 3905.49 1850.66 3898.37 1852.53 3891.25 1856.51 3885.59 1862.6 3881.38 1868.68 3877.17 1877.77 3875.07 1889.86 3875.07ZM1445.71 3843.09C1436.46 3843.17 1428.5 3845.32 1421.83 3849.52 1415.16 3853.73 1409.7 3859.54 1405.45 3866.95L1403.57 3866.95 1403.57 3845.96 1367.19 3845.96 1367.19 3983.38 1403.57 3983.38 1403.57 3926.41C1403.66 3914.84 1404.64 3905.49 1406.51 3898.37 1408.39 3891.25 1412.37 3885.59 1418.45 3881.38 1424.54 3877.17 1433.63 3875.07 1445.71 3875.07ZM1268.28 3843.09C1262.03 3843.09 1254.46 3843.92 1245.58 3845.59 1236.71 3847.25 1228.52 3849.5 1221.02 3852.34L1226.89 3879.44C1233.56 3877.03 1240.35 3875.15 1247.27 3873.82 1254.19 3872.49 1260.61 3871.82 1266.53 3871.82 1274.28 3871.82 1280.47 3873.57 1285.1 3877.07 1289.73 3880.57 1292.96 3885.98 1294.79 3893.31 1287.2 3893.81 1281.37 3894.25 1277.28 3894.62 1273.2 3895 1268.57 3895.6 1263.4 3896.43 1251.9 3898.26 1241.96 3901.32 1233.58 3905.61 1225.2 3909.9 1218.79 3915.17 1214.33 3921.42 1209.87 3927.66 1207.64 3934.62 1207.64 3942.28 1207.64 3951.36 1209.51 3959.21 1213.26 3965.83 1217.01 3972.45 1222.41 3977.53 1229.46 3981.07 1236.5 3984.61 1244.81 3986.38 1254.4 3986.38 1264.15 3986.38 1272.64 3984.23 1279.85 3979.94 1287.06 3975.65 1292.16 3970.26 1295.16 3963.76L1296.54 3963.76 1296.54 3983.38 1333.05 3983.38 1333.05 3909.05C1332.97 3893.81 1330.63 3881.34 1326.05 3871.64 1321.46 3861.93 1314.42 3854.75 1304.92 3850.09 1295.41 3845.42 1283.2 3843.09 1268.28 3843.09ZM1122.86 3843.09C1110.19 3843.01 1099.06 3845.94 1089.47 3851.9 1079.89 3857.85 1072.49 3866.31 1067.28 3877.26 1062.07 3888.21 1059.5 3900.89 1059.59 3915.3 1059.67 3930.04 1062.51 3942.74 1068.09 3953.4 1073.68 3964.06 1081.78 3972.22 1092.41 3977.88 1103.04 3983.54 1115.81 3986.38 1130.74 3986.38 1139.91 3986.38 1148.47 3985.38 1156.43 3983.38 1164.39 3981.38 1172.54 3977.88 1180.88 3972.88L1174.88 3945.15C1168.21 3948.48 1161.16 3950.98 1153.74 3952.65 1146.32 3954.31 1139.07 3955.15 1131.99 3955.15 1121.32 3955.15 1112.69 3952.65 1106.1 3947.65 1099.52 3942.65 1096.06 3935.57 1095.72 3926.41L1186.63 3926.41C1187.13 3920.83 1187.38 3915.63 1187.38 3910.8 1187.38 3897.22 1184.8 3885.38 1179.63 3875.26 1174.46 3865.14 1167.04 3857.31 1157.37 3851.77 1147.7 3846.23 1136.2 3843.34 1122.86 3843.09ZM1536.24 3803.12 1601.26 3983.38 1639.9 3983.38 1668.16 3907.43 1669.91 3907.43 1695.8 3983.38 1732.81 3983.38 1786.2 3803.12 1747.06 3803.12 1711.3 3935.16 1709.17 3935.16 1672.41 3803.12 1634.27 3803.12 1653.66 3859.83 1623.65 3940.16 1621.52 3940.16 1575.63 3803.12ZM2039.91 3802.87 2003.4 3815.36 2003.4 3845.96 1980.89 3845.96 1980.89 3877.69 2003.4 3877.69 2003.4 3938.41C2003.4 3953.06 2007.13 3964.22 2014.59 3971.89 2022.05 3979.55 2032.86 3983.38 2047.03 3983.38L2047.16 3982.88 2047.16 3983.38 2067.42 3983.38 2067.42 3952.77 2055.79 3952.77C2051.95 3952.77 2048.89 3952.23 2046.6 3951.15 2044.3 3950.07 2042.62 3948.17 2041.53 3945.46 2040.45 3942.76 2039.91 3938.91 2039.91 3933.91L2039.91 3877.69 2068.67 3877.69 2068.67 3845.96 2039.91 3845.96ZM986.064 3792.75 986.064 3938.41C986.064 3950.65 987.293 3959.93 989.753 3966.26 992.212 3972.59 996.484 3977.03 1002.57 3979.57 1008.65 3982.11 1017.62 3983.38 1029.45 3983.38L1039.83 3983.38 1039.83 3952.77 1038.46 3952.77C1033.87 3952.77 1030.52 3952.38 1028.39 3951.59 1026.26 3950.79 1024.76 3949.09 1023.89 3946.46 1023.01 3943.84 1022.58 3939.66 1022.58 3933.91L1022.58 3792.75ZM790 3788 1916.37 3788 1916.37 3824.98 1953.38 3824.98 1953.38 3788 2325 3788 2325 3843.09C2315.75 3843.17 2307.79 3845.32 2301.12 3849.52 2294.45 3853.73 2288.99 3859.54 2284.74 3866.95L2282.86 3866.95 2282.86 3845.96 2246.47 3845.96 2246.47 3983.38 2282.86 3983.38 2282.86 3926.41C2282.94 3914.84 2283.92 3905.49 2285.8 3898.37 2287.68 3891.25 2291.66 3885.59 2297.74 3881.38 2303.83 3877.17 2312.91 3875.07 2325 3875.07L2325 3988 882.03 3988C898.202 3988 912.519 3984.31 924.982 3976.94 937.444 3969.57 947.635 3958.77 955.554 3944.53L932.296 3924.91C925.628 3934.91 918.042 3942.47 909.539 3947.59 901.036 3952.71 891.867 3955.27 882.03 3955.27 871.527 3955.27 862.211 3952.69 854.083 3947.53 845.956 3942.36 839.6 3935.1 835.015 3925.73 830.43 3916.36 828.054 3905.55 827.887 3893.31 828.054 3881.07 830.451 3870.26 835.077 3860.89 839.704 3851.52 846.06 3844.26 854.146 3839.09 862.232 3833.93 871.527 3831.35 882.03 3831.35 891.867 3831.35 901.036 3833.93 909.539 3839.09 918.042 3844.26 925.628 3851.83 932.296 3861.83L955.554 3842.22C947.551 3827.89 937.319 3817.04 924.857 3809.67 912.394 3802.3 898.119 3798.62 882.03 3798.62 864.107 3798.62 848.227 3802.55 834.39 3810.42 820.552 3818.29 809.756 3829.39 802.004 3843.72 794.251 3858.04 790.25 3874.57 790 3893.31Z" fill="#F8F8F8" fill-rule="evenodd"/></g></svg>