<svg width="407" height="54" xmlns="http://www.w3.org/2000/svg" xmlns:xlink="http://www.w3.org/1999/xlink" overflow="hidden"><defs><clipPath id="clip0"><path d="M317 152 724 152 724 206 317 206Z" fill-rule="evenodd" clip-rule="evenodd"/></clipPath></defs><g clip-path="url(#clip0)" transform="translate(-317 -152)"><path d="M451.436 186.428C449.543 186.495 448.04 186.577 446.929 186.677 445.817 186.776 444.557 186.958 443.148 187.223 441.497 187.532 440.165 188.161 439.153 189.11 438.14 190.059 437.634 191.273 437.634 192.751 437.634 194.23 438.069 195.383 438.938 196.211 439.808 197.038 441.013 197.452 442.554 197.452 444.051 197.452 445.415 197.176 446.648 196.625 447.881 196.073 448.91 195.317 449.735 194.357 450.561 193.397 451.128 192.321 451.436 191.129ZM678.266 175.007C676.813 175.007 675.525 175.311 674.403 175.918 673.28 176.525 672.405 177.374 671.778 178.467 671.15 179.559 670.837 180.801 670.837 182.191L685.629 182.191C685.629 180.757 685.326 179.499 684.721 178.417 684.116 177.336 683.257 176.497 682.146 175.901 681.034 175.305 679.741 175.007 678.266 175.007ZM405.942 175.007C404.489 175.007 403.202 175.311 402.079 175.918 400.956 176.525 400.081 177.374 399.454 178.467 398.827 179.559 398.513 180.801 398.513 182.191L413.305 182.191C413.305 180.757 413.003 179.499 412.397 178.417 411.792 177.336 410.933 176.497 409.822 175.901 408.71 175.305 407.417 175.007 405.942 175.007ZM615.231 167.36 624.872 167.36 624.872 203.775 615.231 203.775ZM723 166.599 723 175.074C719.808 175.074 717.409 175.631 715.802 176.745 714.195 177.86 713.144 179.361 712.649 181.248 712.153 183.135 711.895 185.612 711.873 188.68L711.873 203.775 702.264 203.775 702.264 167.36 711.873 167.36 711.873 172.922 712.368 172.922C713.491 170.958 714.932 169.418 716.693 168.304 718.454 167.189 720.557 166.621 723 166.599ZM678.035 166.599C681.557 166.665 684.594 167.432 687.148 168.9 689.701 170.367 691.66 172.442 693.025 175.123 694.39 177.805 695.072 180.944 695.072 184.542 695.072 185.822 695.006 187.201 694.874 188.68L670.87 188.68C670.958 191.107 671.871 192.983 673.61 194.307 675.349 195.632 677.628 196.294 680.445 196.294 682.316 196.294 684.231 196.073 686.19 195.632 688.149 195.19 690.009 194.528 691.77 193.645L693.355 200.994C691.154 202.319 689.002 203.245 686.9 203.775 684.798 204.305 682.536 204.57 680.115 204.57 676.175 204.57 672.801 203.819 669.995 202.319 667.188 200.818 665.048 198.655 663.573 195.83 662.098 193.005 661.349 189.64 661.328 185.733 661.305 181.915 661.982 178.555 663.358 175.653 664.734 172.751 666.687 170.511 669.219 168.933 671.75 167.355 674.689 166.577 678.035 166.599ZM608.337 166.599 608.337 175.074C605.146 175.074 602.746 175.631 601.139 176.745 599.532 177.86 598.481 179.361 597.986 181.248 597.491 183.135 597.232 185.612 597.21 188.68L597.21 203.775 587.602 203.775 587.602 167.36 597.21 167.36 597.21 172.922 597.705 172.922C598.828 170.958 600.27 169.418 602.031 168.304 603.792 167.189 605.894 166.621 608.337 166.599ZM490.735 166.599 490.735 175.074C487.543 175.074 485.144 175.631 483.537 176.745 481.93 177.86 480.879 179.361 480.383 181.248 479.888 183.135 479.63 185.612 479.608 188.68L479.608 203.775 469.999 203.775 469.999 167.36 479.608 167.36 479.608 172.922 480.103 172.922C481.225 170.958 482.667 169.418 484.428 168.304 486.189 167.189 488.291 166.621 490.735 166.599ZM443.974 166.599C447.914 166.599 451.139 167.217 453.648 168.453 456.157 169.689 458.017 171.592 459.228 174.163 460.439 176.734 461.055 180.039 461.077 184.078L461.077 203.775 451.436 203.775 451.436 198.578 451.073 198.578C450.28 200.299 448.932 201.728 447.028 202.865 445.124 204.001 442.884 204.57 440.309 204.57 437.777 204.57 435.581 204.101 433.721 203.163 431.861 202.225 430.436 200.879 429.445 199.124 428.455 197.369 427.96 195.289 427.96 192.884 427.96 190.853 428.548 189.011 429.726 187.355 430.904 185.7 432.599 184.304 434.811 183.168 437.023 182.031 439.648 181.22 442.686 180.735 444.051 180.514 445.272 180.354 446.351 180.255 447.43 180.155 448.97 180.039 450.973 179.907 450.489 177.965 449.636 176.53 448.415 175.603 447.193 174.676 445.558 174.213 443.511 174.213 441.948 174.213 440.253 174.39 438.426 174.743 436.599 175.096 434.805 175.592 433.044 176.232L431.493 169.049C433.474 168.298 435.636 167.702 437.981 167.261 440.325 166.82 442.323 166.599 443.974 166.599ZM405.711 166.599C409.233 166.665 412.271 167.432 414.824 168.9 417.378 170.367 419.337 172.442 420.701 175.123 422.066 177.805 422.749 180.944 422.749 184.542 422.749 185.822 422.682 187.201 422.55 188.68L398.546 188.68C398.634 191.107 399.548 192.983 401.287 194.307 403.026 195.632 405.304 196.294 408.121 196.294 409.992 196.294 411.908 196.073 413.867 195.632 415.826 195.19 417.686 194.528 419.447 193.645L421.032 200.994C418.83 202.319 416.679 203.245 414.576 203.775 412.474 204.305 410.213 204.57 407.791 204.57 403.851 204.57 400.478 203.819 397.671 202.319 394.865 200.818 392.724 198.655 391.249 195.83 389.774 193.005 389.026 189.64 389.004 185.733 388.982 181.915 389.659 178.555 391.034 175.653 392.41 172.751 394.364 170.511 396.895 168.933 399.427 167.355 402.365 166.577 405.711 166.599ZM515.134 156.006 525.535 156.006 537.652 192.321 538.214 192.321 546.138 171.035 541.02 156.006 551.091 156.006 560.798 190.997 561.359 190.997 570.803 156.006 581.137 156.006 567.039 203.775 557.265 203.775 550.43 183.648 549.968 183.648 542.506 203.775 532.303 203.775ZM647.879 155.939 647.879 167.36 655.473 167.36 655.473 175.769 647.879 175.769 647.879 190.666C647.879 191.99 648.022 193.011 648.308 193.728 648.594 194.445 649.04 194.947 649.645 195.234 650.251 195.521 651.06 195.665 652.072 195.665L655.143 195.665 655.143 203.775 649.794 203.775 649.794 203.643 649.761 203.775C646.019 203.775 643.163 202.76 641.193 200.73 639.223 198.699 638.238 195.742 638.238 191.858L638.238 175.769 632.294 175.769 632.294 167.36 638.238 167.36 638.238 159.25ZM342.301 154.814C346.55 154.814 350.319 155.79 353.61 157.744 356.901 159.697 359.603 162.571 361.716 166.367L355.575 171.565C353.814 168.916 351.811 166.908 349.566 165.54 347.32 164.171 344.899 163.487 342.301 163.487 339.528 163.487 337.074 164.171 334.938 165.54 332.803 166.908 331.125 168.834 329.903 171.316 328.681 173.799 328.049 176.663 328.005 179.907 328.049 183.151 328.676 186.015 329.887 188.497 331.097 190.98 332.776 192.906 334.922 194.274 337.068 195.643 339.528 196.327 342.301 196.327 344.899 196.327 347.32 195.648 349.566 194.291 351.811 192.933 353.814 190.931 355.575 188.282L361.716 193.48C359.625 197.254 356.934 200.117 353.643 202.07 350.352 204.023 346.572 205 342.301 205 337.569 205 333.376 203.957 329.721 201.872 326.067 199.786 323.217 196.845 321.17 193.049 319.123 189.253 318.066 184.873 318 179.907 318.066 174.941 319.123 170.56 321.17 166.765 323.217 162.969 326.067 160.028 329.721 157.942 333.376 155.857 337.569 154.814 342.301 154.814ZM369.669 153.258 379.311 153.258 379.311 190.666C379.311 192.189 379.426 193.298 379.657 193.993 379.889 194.688 380.285 195.14 380.846 195.35 381.407 195.56 382.293 195.665 383.504 195.665L383.867 195.665 383.867 203.775 381.127 203.775C378.001 203.775 375.635 203.439 374.028 202.765 372.421 202.092 371.293 200.917 370.643 199.24 369.994 197.563 369.669 195.102 369.669 191.858ZM615.165 152 624.938 152 624.938 161.799 615.165 161.799Z" fill="#00BAFF" fill-rule="evenodd"/></g></svg>