<!-- Exported by Character Map UWP -->
<svg height="100%" viewBox="32 -234 288 279" width="100%" xmlns="http://www.w3.org/2000/svg" xmlns:xlink="http://www.w3.org/1999/xlink">
  <path d="M278.25,44.875C274.667,44.875 271.229,44.1875 267.938,42.8125C264.646,41.4375 261.75,39.5 259.25,37L180.25,-42L148.75,-10.5C148.75,-2.83333 147.396,4.35417 144.688,11.0625C141.979,17.7708 138.229,23.625 133.438,28.625C128.646,33.625 122.958,37.5833 116.375,40.5C109.792,43.4167 102.625,44.875 94.875,44.875C87.4583,44.875 80.4792,43.4583 73.9375,40.625C67.3958,37.7917 61.6875,33.9375 56.8125,29.0625C51.9375,24.1875 48.0833,18.4792 45.25,11.9375C42.4167,5.39583 41,-1.58333 41,-9C41,-16.75 42.4583,-23.9167 45.375,-30.5C48.2917,-37.0833 52.25,-42.7708 57.25,-47.5625C62.25,-52.3542 68.1042,-56.1042 74.8125,-58.8125C81.5208,-61.5208 88.7083,-62.875 96.375,-62.875L132.375,-98.875L126.375,-104.875L120.625,-99.125L112.5,-109L92.25,-88.75C89.75,-86.25 86.8333,-84.3125 83.5,-82.9375C80.1667,-81.5625 76.75,-80.875 73.25,-80.875C65.9167,-80.875 59.5417,-83.5 54.125,-88.75L39.875,-103C34.625,-108.417 32,-114.792 32,-122.125C32,-125.708 32.6875,-129.146 34.0625,-132.438C35.4375,-135.729 37.375,-138.625 39.875,-141.125L60.5,-161.75L69,-161.75L69.625,-164C68.4583,-166.833 67.875,-169.708 67.875,-172.625C67.875,-175.708 68.4375,-178.583 69.5625,-181.25C70.6875,-183.917 72.3333,-186.333 74.5,-188.5L86.125,-200.125C90.625,-204.458 95.9167,-206.625 102,-206.625C103.417,-206.625 104.833,-206.5 106.25,-206.25C117.75,-215.083 130.063,-221.854 143.188,-226.563C156.313,-231.271 170.167,-233.625 184.75,-233.625L202.75,-233.625L202.75,-215.625C202.75,-211.875 202.042,-208.375 200.625,-205.125C199.208,-201.875 197.271,-199.042 194.813,-196.625C192.354,-194.208 189.5,-192.292 186.25,-190.875C183,-189.458 179.5,-188.75 175.75,-188.75C173.25,-188.75 170.917,-188.271 168.75,-187.313C166.583,-186.354 164.688,-185.063 163.063,-183.438C161.438,-181.813 160.146,-179.917 159.188,-177.75C158.229,-175.583 157.75,-173.25 157.75,-170.75C157.75,-169.75 158,-168.958 158.5,-168.375C159,-167.792 159.583,-167.208 160.25,-166.625L175.5,-154L169.75,-148.25L175.75,-142.25L202.75,-169.25C202.75,-176.833 204.104,-184 206.813,-190.75C209.521,-197.5 213.271,-203.375 218.063,-208.375C222.854,-213.375 228.542,-217.333 235.125,-220.25C241.708,-223.167 248.875,-224.625 256.625,-224.625C264.042,-224.625 271.021,-223.208 277.563,-220.375C284.104,-217.542 289.813,-213.688 294.688,-208.813C299.563,-203.938 303.417,-198.229 306.25,-191.688C309.083,-185.146 310.5,-178.167 310.5,-170.75C310.5,-163 309.042,-155.833 306.125,-149.25C303.208,-142.667 299.25,-136.979 294.25,-132.188C289.25,-127.396 283.375,-123.646 276.625,-120.938C269.875,-118.229 262.708,-116.875 255.125,-116.875L232.625,-94.375L311.625,-15.375C314.125,-12.875 316.063,-9.95833 317.438,-6.625C318.813,-3.29167 319.5,0.166667 319.5,3.75C319.5,7.33333 318.813,10.7708 317.438,14.0625C316.063,17.3542 314.125,20.25 311.625,22.75L297.375,37C291.958,42.25 285.583,44.875 278.25,44.875Z" fill="#000000" fill-opacity="1">
  </path>
  <path d="M289.25,-185.5C291.417,-180.75 292.5,-175.833 292.5,-170.75C292.5,-165.75 291.563,-161.063 289.688,-156.688C287.813,-152.313 285.25,-148.5 282,-145.25C278.75,-142 274.958,-139.438 270.625,-137.563C266.292,-135.688 261.625,-134.75 256.625,-134.75C254.042,-134.75 251.333,-135.083 248.5,-135.75L129.875,-17.125C130.542,-14.2917 130.875,-11.5833 130.875,-9C130.875,-4 129.938,0.666667 128.063,5C126.187,9.33333 123.625,13.125 120.375,16.375C117.125,19.625 113.312,22.1875 108.938,24.0625C104.562,25.9375 99.875,26.875 94.875,26.875C89.875,26.875 84.9583,25.8333 80.125,23.75L103.875,0L103.875,-9L94.875,-18L85.875,-18L62.125,5.75C60.0417,0.916667 59,-4 59,-9C59,-14 59.9375,-18.6875 61.8125,-23.0625C63.6875,-27.4375 66.25,-31.25 69.5,-34.5C72.75,-37.75 76.5417,-40.3125 80.875,-42.1875C85.2083,-44.0625 89.875,-45 94.875,-45C97.4583,-45 100.167,-44.6667 103,-44L221.625,-162.625C220.958,-165.458 220.625,-168.167 220.625,-170.75C220.625,-175.75 221.563,-180.417 223.438,-184.75C225.313,-189.083 227.875,-192.875 231.125,-196.125C234.375,-199.375 238.188,-201.937 242.563,-203.813C246.938,-205.687 251.625,-206.625 256.625,-206.625C261.708,-206.625 266.625,-205.542 271.375,-203.375L247.625,-179.75L247.625,-170.75L256.625,-161.75L265.625,-161.75Z" fill="#E5E5E5" fill-opacity="1">
  </path>
  <path d="M278.25,26.875C275.833,26.875 273.75,26 272,24.25L193.75,-53.875C192.917,-54.7083 192.125,-55.9583 191.375,-57.625C190.625,-59.2917 189.896,-61.0625 189.188,-62.9375C188.479,-64.8125 187.75,-66.5833 187,-68.25C186.25,-69.9167 185.5,-71.125 184.75,-71.875L87.25,-169.375C86.3333,-170.292 85.875,-171.333 85.875,-172.5C85.875,-173.75 86.3333,-174.833 87.25,-175.75L98.875,-187.375C99.7083,-188.208 100.75,-188.625 102,-188.625C103.25,-188.625 104.292,-188.208 105.125,-187.375L202.75,-89.875C203.833,-88.7917 205.167,-87.9167 206.75,-87.25C208.333,-86.5833 209.979,-85.9583 211.688,-85.375C213.396,-84.7917 215.042,-84.1667 216.625,-83.5C218.208,-82.8333 219.542,-81.9583 220.625,-80.875L298.875,-2.625C300.625,-0.875 301.5,1.25 301.5,3.75C301.5,6.16667 300.625,8.25 298.875,10L284.625,24.25C282.875,26 280.75,26.875 278.25,26.875Z" fill="#EBA300" fill-opacity="1">
  </path>
  <path d="M184.75,-215.625C184.75,-213.125 183.875,-211 182.125,-209.25C180.375,-207.5 178.25,-206.625 175.75,-206.625C170.75,-206.625 166.063,-205.687 161.688,-203.813C157.313,-201.937 153.5,-199.375 150.25,-196.125C147,-192.875 144.438,-189.083 142.563,-184.75C140.688,-180.417 139.75,-175.75 139.75,-170.75C139.75,-167.167 140.583,-163.833 142.25,-160.75C143.917,-157.667 146.083,-155 148.75,-152.75L121.875,-125.75C119.458,-128.5 116.75,-130.688 113.75,-132.313C110.75,-133.938 107.375,-134.75 103.625,-134.75C101.625,-134.75 100.042,-134.354 98.875,-133.563C97.7083,-132.771 96.8333,-131.729 96.25,-130.438C95.6667,-129.146 95.2917,-127.688 95.125,-126.063C94.9583,-124.438 94.875,-122.833 94.875,-121.25L94.875,-116.875L79.5,-101.5C77.75,-99.75 75.625,-98.875 73.125,-98.875C70.7083,-98.875 68.625,-99.75 66.875,-101.5L52.625,-115.75C50.875,-117.5 50,-119.625 50,-122.125C50,-124.625 50.875,-126.75 52.625,-128.5L67.875,-143.75L76.875,-143.75C79.7917,-143.75 81.9167,-144.646 83.25,-146.438C84.5833,-148.229 85.4583,-150.417 85.875,-153C86.2083,-155.333 86.5833,-157.25 87,-158.75C87.4167,-160.25 87.9375,-161.604 88.5625,-162.813C89.1875,-164.021 90,-165.229 91,-166.438C92,-167.646 93.2917,-169.083 94.875,-170.75C97.2083,-173.25 99.5208,-175.792 101.813,-178.375C104.104,-180.958 106.542,-183.375 109.125,-185.625C119.958,-195.125 131.646,-202.5 144.188,-207.75C156.729,-213 170.25,-215.625 184.75,-215.625Z" fill="#CCCCCC" fill-opacity="1">
  </path>
</svg>